<svg width="30" height="24" viewBox="0 0 30 24" fill="none" xmlns="http://www.w3.org/2000/svg">
<path d="M29.9572 16.7444C29.9572 16.7438 29.9572 16.7432 29.9572 16.7427C29.9568 16.7395 29.9572 16.7373 29.9568 16.7339H29.9562C29.5647 11.1682 28.3649 7.03998 26.678 4.2497C25.8336 2.85458 24.8635 1.79392 23.8045 1.07869C22.747 0.362895 21.5985 -0.00106047 20.442 6.96373e-05C19.5894 -0.000495414 18.8608 0.165127 18.2431 0.415131C17.3152 0.789949 16.6401 1.34401 16.1124 1.75361C15.849 1.95954 15.6218 2.12787 15.4357 2.23026C15.2476 2.33436 15.1149 2.37084 15 2.37084C14.9222 2.37027 14.8403 2.35508 14.7351 2.31308C14.5526 2.24169 14.3081 2.07877 14.0157 1.85275C13.5744 1.51661 13.0263 1.05138 12.3034 0.66953C11.5804 0.287053 10.6765 -0.00162548 9.55799 6.88829e-06C8.40141 -0.00112321 7.25291 0.363335 6.19541 1.07863C4.60664 2.15342 3.2192 3.99687 2.15197 6.59648C1.08645 9.19565 0.336505 12.5601 0.0437116 16.734H0.0432428C0.0427155 16.7373 0.0432428 16.74 0.0427155 16.7428C0.0427155 16.7433 0.0427155 16.7439 0.0427155 16.7444C0.0142389 17.0843 6.1501e-07 17.415 6.1501e-07 17.7358C-0.000526729 19.3091 0.338087 20.6524 0.975645 21.7001C1.61115 22.7482 2.54965 23.4798 3.64834 23.8235C4.0251 23.9423 4.41404 24 4.80598 24C5.94533 23.9984 7.09383 23.5217 8.18637 22.6964C9.28096 21.8683 10.3308 20.684 11.2866 19.1974C11.7462 18.4799 12.3705 17.6405 13.0436 17.0091C13.3797 16.6932 13.7269 16.4306 14.0609 16.2541C14.3955 16.077 14.7107 15.9876 15 15.9882C15.2892 15.9876 15.6045 16.077 15.939 16.2541C16.4403 16.5177 16.9696 16.9797 17.45 17.5168C17.932 18.0528 18.3681 18.6592 18.7134 19.1969C19.6692 20.6841 20.719 21.8683 21.8131 22.6964C22.9062 23.5217 24.0546 23.9984 25.194 24C25.586 24 25.9749 23.9422 26.3511 23.8235C27.4503 23.4798 28.3888 22.7482 29.0238 21.7001C29.6614 20.6524 30 19.3091 30 17.7358C30 17.4155 29.9858 17.0843 29.9572 16.7444ZM27.9338 20.9379C27.459 21.7137 26.8067 22.223 25.9836 22.4856C25.7299 22.5656 25.4675 22.6049 25.194 22.6054C24.4039 22.607 23.5005 22.2655 22.5635 21.5567C21.6275 20.8502 20.6702 19.7847 19.7851 18.4064C19.2833 17.6268 18.6107 16.7105 17.814 15.961C17.4149 15.5862 16.9838 15.2517 16.5156 15.0039C16.0483 14.7565 15.5384 14.5937 15 14.5937C14.4616 14.5937 13.9516 14.7565 13.4844 15.0039C12.7828 15.377 12.1615 15.9397 11.6119 16.5494C11.0639 17.16 10.5905 17.8219 10.2149 18.4064C9.32977 19.7847 8.37188 20.8502 7.43643 21.5567C6.49945 22.2654 5.59553 22.607 4.80592 22.6054C4.53188 22.6048 4.27008 22.5656 4.01584 22.4856C3.19318 22.223 2.54092 21.7137 2.06561 20.9379C1.59334 20.1617 1.30154 19.0988 1.30154 17.7358C1.30154 17.4564 1.31373 17.1638 1.33963 16.8593V16.8561L1.34016 16.849C1.71686 11.4389 2.88973 7.52046 4.41346 5.00862C5.17453 3.75132 6.01951 2.84592 6.8894 2.25864C7.7608 1.67143 8.65459 1.39575 9.55799 1.39468C10.255 1.39524 10.8133 1.52596 11.2968 1.72046C12.0207 2.01241 12.579 2.45855 13.1224 2.8824C13.395 3.09379 13.6634 3.30022 13.9649 3.46854C14.2644 3.63523 14.6111 3.76545 15 3.76545C15.2578 3.76545 15.5013 3.70718 15.7199 3.61948C16.1043 3.46365 16.423 3.2294 16.7407 2.98756C17.2161 2.62147 17.6904 2.22537 18.2695 1.92143C18.8486 1.618 19.5263 1.39631 20.4419 1.39468C21.3453 1.39575 22.2391 1.67143 23.1105 2.25864C24.4151 3.13793 25.6652 4.7406 26.6561 7.15764C27.6475 9.57254 28.3761 12.7915 28.6597 16.8489V16.8522L28.6603 16.8593C28.6857 17.1633 28.6985 17.4558 28.6985 17.7358C28.6979 19.0988 28.4066 20.1622 27.9338 20.9379Z" fill="white"/>
<path d="M9.44697 7.11084H7.16521V9.33997H5.08484V11.7849H7.16521V14.0141H9.44697V11.7849H11.5273V9.33997H9.44697V7.11084Z" fill="white"/>
<path d="M21.6014 6.4126C20.9375 6.4126 20.399 6.98951 20.399 7.70204C20.399 8.41407 20.9375 8.99149 21.6014 8.99149C22.2664 8.99149 22.8048 8.41407 22.8048 7.70204C22.8048 6.98951 22.2664 6.4126 21.6014 6.4126Z" fill="white"/>
<path d="M21.6014 12.6436C20.9375 12.6436 20.399 13.2205 20.399 13.9325C20.399 14.645 20.9375 15.2219 21.6014 15.2219C22.2664 15.2219 22.8048 14.645 22.8048 13.9325C22.8048 13.2205 22.2664 12.6436 21.6014 12.6436Z" fill="white"/>
<path d="M24.5086 9.52832C23.8441 9.52832 23.3052 10.1052 23.3052 10.8173C23.3052 11.5298 23.8441 12.1061 24.5086 12.1061C25.1736 12.1061 25.712 11.5298 25.712 10.8173C25.712 10.1052 25.1736 9.52832 24.5086 9.52832Z" fill="white"/>
<path d="M18.6944 9.52832C18.0294 9.52832 17.491 10.1052 17.491 10.8173C17.491 11.5298 18.0294 12.1061 18.6944 12.1061C19.3589 12.1061 19.8978 11.5298 19.8978 10.8173C19.8978 10.1052 19.3588 9.52832 18.6944 9.52832Z" fill="white"/>
</svg>
